solid OpenSCAD_Model
  facet normal -1 0 0
    outer loop
      vertex 0 0 0
      vertex 0 22 6
      vertex 0 22 0
    endloop
  endfacet
  facet normal -1 -0 0
    outer loop
      vertex 0 22 6
      vertex 0 0 0
      vertex 0 0 6
    endloop
  endfacet
  facet normal 0 0 1
    outer loop
      vertex 13 22 6
      vertex 12 21 6
      vertex 13 0 6
    endloop
  endfacet
  facet normal 0 0 1
    outer loop
      vertex 13 22 6
      vertex 1 21 6
      vertex 12 21 6
    endloop
  endfacet
  facet normal 0 0 1
    outer loop
      vertex 1 21 6
      vertex 0 22 6
      vertex 1 1 6
    endloop
  endfacet
  facet normal -0 0 1
    outer loop
      vertex 0 22 6
      vertex 1 21 6
      vertex 13 22 6
    endloop
  endfacet
  facet normal -0 0 1
    outer loop
      vertex 12 1 6
      vertex 13 0 6
      vertex 12 21 6
    endloop
  endfacet
  facet normal -0 0 1
    outer loop
      vertex 1 1 6
      vertex 13 0 6
      vertex 12 1 6
    endloop
  endfacet
  facet normal 0 0 1
    outer loop
      vertex 1 1 6
      vertex 0 0 6
      vertex 13 0 6
    endloop
  endfacet
  facet normal 0 0 1
    outer loop
      vertex 0 0 6
      vertex 1 1 6
      vertex 0 22 6
    endloop
  endfacet
  facet normal 1 -0 0
    outer loop
      vertex 13 0 6
      vertex 13 22 0
      vertex 13 22 6
    endloop
  endfacet
  facet normal 1 0 0
    outer loop
      vertex 13 22 0
      vertex 13 0 6
      vertex 13 0 0
    endloop
  endfacet
  facet normal 0 0 -1
    outer loop
      vertex 0 0 0
      vertex 13 22 0
      vertex 13 0 0
    endloop
  endfacet
  facet normal -0 0 -1
    outer loop
      vertex 13 22 0
      vertex 0 0 0
      vertex 0 22 0
    endloop
  endfacet
  facet normal 0 -1 0
    outer loop
      vertex 0 0 0
      vertex 13 0 6
      vertex 0 0 6
    endloop
  endfacet
  facet normal 0 -1 -0
    outer loop
      vertex 13 0 6
      vertex 0 0 0
      vertex 13 0 0
    endloop
  endfacet
  facet normal 0 1 -0
    outer loop
      vertex 13 22 0
      vertex 0 22 6
      vertex 13 22 6
    endloop
  endfacet
  facet normal 0 1 0
    outer loop
      vertex 0 22 6
      vertex 13 22 0
      vertex 0 22 0
    endloop
  endfacet
  facet normal 1 -0 0
    outer loop
      vertex 1 1 6
      vertex 1 21 2
      vertex 1 21 6
    endloop
  endfacet
  facet normal 1 0 0
    outer loop
      vertex 1 21 2
      vertex 1 1 6
      vertex 1 1 2
    endloop
  endfacet
  facet normal -1 0 0
    outer loop
      vertex 12 1 2
      vertex 12 21 6
      vertex 12 21 2
    endloop
  endfacet
  facet normal -1 -0 0
    outer loop
      vertex 12 21 6
      vertex 12 1 2
      vertex 12 1 6
    endloop
  endfacet
  facet normal 0 -1 0
    outer loop
      vertex 1 21 2
      vertex 12 21 6
      vertex 1 21 6
    endloop
  endfacet
  facet normal 0 -1 -0
    outer loop
      vertex 12 21 6
      vertex 1 21 2
      vertex 12 21 2
    endloop
  endfacet
  facet normal -0 0 1
    outer loop
      vertex 1 21 2
      vertex 12 1 2
      vertex 12 21 2
    endloop
  endfacet
  facet normal 0 0 1
    outer loop
      vertex 12 1 2
      vertex 1 21 2
      vertex 1 1 2
    endloop
  endfacet
  facet normal 0 1 -0
    outer loop
      vertex 12 1 2
      vertex 1 1 6
      vertex 12 1 6
    endloop
  endfacet
  facet normal 0 1 0
    outer loop
      vertex 1 1 6
      vertex 12 1 2
      vertex 1 1 2
    endloop
  endfacet
  facet normal -1 0 0
    outer loop
      vertex 20 0 0
      vertex 20 24.5 9
      vertex 20 24.5 0
    endloop
  endfacet
  facet normal -1 -0 0
    outer loop
      vertex 20 24.5 9
      vertex 20 0 0
      vertex 20 0 9
    endloop
  endfacet
  facet normal 0 0 1
    outer loop
      vertex 35.5 24.5 9
      vertex 34.5 23.5 9
      vertex 35.5 0 9
    endloop
  endfacet
  facet normal 0 0 1
    outer loop
      vertex 35.5 24.5 9
      vertex 21 23.5 9
      vertex 34.5 23.5 9
    endloop
  endfacet
  facet normal 0 0 1
    outer loop
      vertex 21 23.5 9
      vertex 20 24.5 9
      vertex 21 1 9
    endloop
  endfacet
  facet normal -0 0 1
    outer loop
      vertex 20 24.5 9
      vertex 21 23.5 9
      vertex 35.5 24.5 9
    endloop
  endfacet
  facet normal -0 0 1
    outer loop
      vertex 34.5 1 9
      vertex 35.5 0 9
      vertex 34.5 23.5 9
    endloop
  endfacet
  facet normal 0 0 1
    outer loop
      vertex 32.25 0 9
      vertex 34.5 1 9
      vertex 32.25 1 9
    endloop
  endfacet
  facet normal 0 0 1
    outer loop
      vertex 34.5 1 9
      vertex 32.25 0 9
      vertex 35.5 0 9
    endloop
  endfacet
  facet normal -0 0 1
    outer loop
      vertex 21 1 9
      vertex 23.25 0 9
      vertex 23.25 1 9
    endloop
  endfacet
  facet normal 0 0 1
    outer loop
      vertex 21 1 9
      vertex 20 0 9
      vertex 23.25 0 9
    endloop
  endfacet
  facet normal 0 0 1
    outer loop
      vertex 20 0 9
      vertex 21 1 9
      vertex 20 24.5 9
    endloop
  endfacet
  facet normal 1 -0 0
    outer loop
      vertex 35.5 0 9
      vertex 35.5 24.5 0
      vertex 35.5 24.5 9
    endloop
  endfacet
  facet normal 1 0 0
    outer loop
      vertex 35.5 24.5 0
      vertex 35.5 0 9
      vertex 35.5 0 0
    endloop
  endfacet
  facet normal 0 1 -0
    outer loop
      vertex 35.5 24.5 0
      vertex 20 24.5 9
      vertex 35.5 24.5 9
    endloop
  endfacet
  facet normal 0 1 0
    outer loop
      vertex 20 24.5 9
      vertex 35.5 24.5 0
      vertex 20 24.5 0
    endloop
  endfacet
  facet normal 0 0 -1
    outer loop
      vertex 23.25 0 0
      vertex 20 0 0
      vertex 23.25 4 0
    endloop
  endfacet
  facet normal 0 0 -1
    outer loop
      vertex 32.25 4 0
      vertex 35.5 0 0
      vertex 32.25 0 0
    endloop
  endfacet
  facet normal 0 0 -1
    outer loop
      vertex 35.5 0 0
      vertex 32.25 4 0
      vertex 35.5 24.5 0
    endloop
  endfacet
  facet normal 0 0 -1
    outer loop
      vertex 23.25 4 0
      vertex 35.5 24.5 0
      vertex 32.25 4 0
    endloop
  endfacet
  facet normal 0 0 -1
    outer loop
      vertex 20 24.5 0
      vertex 23.25 4 0
      vertex 20 0 0
    endloop
  endfacet
  facet normal 0 0 -1
    outer loop
      vertex 23.25 4 0
      vertex 20 24.5 0
      vertex 35.5 24.5 0
    endloop
  endfacet
  facet normal 0 -1 0
    outer loop
      vertex 20 0 0
      vertex 23.25 0 9
      vertex 20 0 9
    endloop
  endfacet
  facet normal 0 -1 -0
    outer loop
      vertex 23.25 0 9
      vertex 20 0 0
      vertex 23.25 0 0
    endloop
  endfacet
  facet normal 0 -1 0
    outer loop
      vertex 32.25 0 0
      vertex 35.5 0 9
      vertex 32.25 0 9
    endloop
  endfacet
  facet normal 0 -1 -0
    outer loop
      vertex 35.5 0 9
      vertex 32.25 0 0
      vertex 35.5 0 0
    endloop
  endfacet
  facet normal 1 -0 0
    outer loop
      vertex 21 1 9
      vertex 21 23.5 2
      vertex 21 23.5 9
    endloop
  endfacet
  facet normal 1 0 0
    outer loop
      vertex 21 23.5 2
      vertex 21 1 9
      vertex 21 1 2
    endloop
  endfacet
  facet normal -1 0 0
    outer loop
      vertex 34.5 1 2
      vertex 34.5 23.5 9
      vertex 34.5 23.5 2
    endloop
  endfacet
  facet normal -1 -0 0
    outer loop
      vertex 34.5 23.5 9
      vertex 34.5 1 2
      vertex 34.5 1 9
    endloop
  endfacet
  facet normal 0 -1 0
    outer loop
      vertex 21 23.5 2
      vertex 34.5 23.5 9
      vertex 21 23.5 9
    endloop
  endfacet
  facet normal 0 -1 -0
    outer loop
      vertex 34.5 23.5 9
      vertex 21 23.5 2
      vertex 34.5 23.5 2
    endloop
  endfacet
  facet normal 0 0 1
    outer loop
      vertex 34.5 23.5 2
      vertex 32.25 4 2
      vertex 34.5 1 2
    endloop
  endfacet
  facet normal 0 0 1
    outer loop
      vertex 34.5 23.5 2
      vertex 23.25 4 2
      vertex 32.25 4 2
    endloop
  endfacet
  facet normal -0 0 1
    outer loop
      vertex 21 23.5 2
      vertex 23.25 4 2
      vertex 34.5 23.5 2
    endloop
  endfacet
  facet normal 0 0 1
    outer loop
      vertex 21 1 2
      vertex 23.25 4 2
      vertex 21 23.5 2
    endloop
  endfacet
  facet normal 0 0 1
    outer loop
      vertex 23.25 4 2
      vertex 21 1 2
      vertex 23.25 1 2
    endloop
  endfacet
  facet normal 0 0 1
    outer loop
      vertex 34.5 1 2
      vertex 32.25 4 2
      vertex 32.25 1 2
    endloop
  endfacet
  facet normal 0 1 -0
    outer loop
      vertex 23.25 1 2
      vertex 21 1 9
      vertex 23.25 1 9
    endloop
  endfacet
  facet normal 0 1 0
    outer loop
      vertex 21 1 9
      vertex 23.25 1 2
      vertex 21 1 2
    endloop
  endfacet
  facet normal 0 1 -0
    outer loop
      vertex 34.5 1 2
      vertex 32.25 1 9
      vertex 34.5 1 9
    endloop
  endfacet
  facet normal 0 1 0
    outer loop
      vertex 32.25 1 9
      vertex 34.5 1 2
      vertex 32.25 1 2
    endloop
  endfacet
  facet normal 1 0 0
    outer loop
      vertex 23.25 1 9
      vertex 23.25 0 9
      vertex 23.25 1 2
    endloop
  endfacet
  facet normal 1 -0 0
    outer loop
      vertex 23.25 1 2
      vertex 23.25 4 0
      vertex 23.25 4 2
    endloop
  endfacet
  facet normal 1 0 0
    outer loop
      vertex 23.25 1 2
      vertex 23.25 0 0
      vertex 23.25 4 0
    endloop
  endfacet
  facet normal 1 0 0
    outer loop
      vertex 23.25 0 0
      vertex 23.25 1 2
      vertex 23.25 0 9
    endloop
  endfacet
  facet normal -1 0 0
    outer loop
      vertex 32.25 4 0
      vertex 32.25 1 2
      vertex 32.25 4 2
    endloop
  endfacet
  facet normal -1 0 0
    outer loop
      vertex 32.25 0 0
      vertex 32.25 1 2
      vertex 32.25 4 0
    endloop
  endfacet
  facet normal -1 0 0
    outer loop
      vertex 32.25 0 9
      vertex 32.25 1 2
      vertex 32.25 0 0
    endloop
  endfacet
  facet normal -1 0 0
    outer loop
      vertex 32.25 1 2
      vertex 32.25 0 9
      vertex 32.25 1 9
    endloop
  endfacet
  facet normal 0 -1 0
    outer loop
      vertex 23.25 4 0
      vertex 32.25 4 2
      vertex 23.25 4 2
    endloop
  endfacet
  facet normal 0 -1 -0
    outer loop
      vertex 32.25 4 2
      vertex 23.25 4 0
      vertex 32.25 4 0
    endloop
  endfacet
  facet normal -1 0 0
    outer loop
      vertex -90 15.75 0
      vertex -90 5 2
      vertex -90 15.75 20
    endloop
  endfacet
  facet normal -1 0 0
    outer loop
      vertex -90 15.75 0
      vertex -90 -5 2
      vertex -90 5 2
    endloop
  endfacet
  facet normal -1 0 0
    outer loop
      vertex -90 -15.75 0
      vertex -90 -5 2
      vertex -90 15.75 0
    endloop
  endfacet
  facet normal -1 0 0
    outer loop
      vertex -90 -15.75 20
      vertex -90 -5 2
      vertex -90 -15.75 0
    endloop
  endfacet
  facet normal -1 0 0
    outer loop
      vertex -90 -5 2
      vertex -90 -15.75 20
      vertex -90 -5 20
    endloop
  endfacet
  facet normal -1 -0 0
    outer loop
      vertex -90 15.75 20
      vertex -90 5 2
      vertex -90 5 20
    endloop
  endfacet
  facet normal 0 0 1
    outer loop
      vertex -89 -5 20
      vertex -90 -5 20
      vertex -89 -14.75 20
    endloop
  endfacet
  facet normal 0 0 1
    outer loop
      vertex -33.5 15.75 20
      vertex -34.5 14.75 20
      vertex -33.5 -15.75 20
    endloop
  endfacet
  facet normal 0 0 1
    outer loop
      vertex -33.5 15.75 20
      vertex -89 14.75 20
      vertex -34.5 14.75 20
    endloop
  endfacet
  facet normal -0 0 1
    outer loop
      vertex -90 15.75 20
      vertex -89 14.75 20
      vertex -33.5 15.75 20
    endloop
  endfacet
  facet normal 0 0 1
    outer loop
      vertex -90 5 20
      vertex -89 14.75 20
      vertex -90 15.75 20
    endloop
  endfacet
  facet normal 0 0 1
    outer loop
      vertex -89 14.75 20
      vertex -90 5 20
      vertex -89 5 20
    endloop
  endfacet
  facet normal -0 0 1
    outer loop
      vertex -34.5 -14.75 20
      vertex -33.5 -15.75 20
      vertex -34.5 14.75 20
    endloop
  endfacet
  facet normal -0 0 1
    outer loop
      vertex -89 -14.75 20
      vertex -33.5 -15.75 20
      vertex -34.5 -14.75 20
    endloop
  endfacet
  facet normal 0 0 1
    outer loop
      vertex -89 -14.75 20
      vertex -90 -15.75 20
      vertex -33.5 -15.75 20
    endloop
  endfacet
  facet normal 0 0 1
    outer loop
      vertex -90 -15.75 20
      vertex -89 -14.75 20
      vertex -90 -5 20
    endloop
  endfacet
  facet normal 1 -0 0
    outer loop
      vertex -33.5 -15.75 20
      vertex -33.5 15.75 2
      vertex -33.5 15.75 20
    endloop
  endfacet
  facet normal 1 0 0
    outer loop
      vertex -33.5 15.75 2
      vertex -33.5 -15.75 20
      vertex -33.5 -15.75 2
    endloop
  endfacet
  facet normal 0 0 -1
    outer loop
      vertex -90 -15.75 0
      vertex -10 15.75 0
      vertex -10 -15.75 0
    endloop
  endfacet
  facet normal -0 0 -1
    outer loop
      vertex -10 15.75 0
      vertex -90 -15.75 0
      vertex -90 15.75 0
    endloop
  endfacet
  facet normal 0 -1 0
    outer loop
      vertex -90 -15.75 20
      vertex -33.5 -15.75 2
      vertex -33.5 -15.75 20
    endloop
  endfacet
  facet normal 0 -1 0
    outer loop
      vertex -90 -15.75 0
      vertex -33.5 -15.75 2
      vertex -90 -15.75 20
    endloop
  endfacet
  facet normal 0 -1 0
    outer loop
      vertex -10 -15.75 0
      vertex -33.5 -15.75 2
      vertex -90 -15.75 0
    endloop
  endfacet
  facet normal 0 -1 0
    outer loop
      vertex -33.5 -15.75 2
      vertex -10 -15.75 0
      vertex -10 -15.75 2
    endloop
  endfacet
  facet normal 0 1 0
    outer loop
      vertex -10 15.75 2
      vertex -10 15.75 0
      vertex -33.5 15.75 2
    endloop
  endfacet
  facet normal 0 1 -0
    outer loop
      vertex -33.5 15.75 2
      vertex -90 15.75 20
      vertex -33.5 15.75 20
    endloop
  endfacet
  facet normal 0 1 0
    outer loop
      vertex -33.5 15.75 2
      vertex -90 15.75 0
      vertex -90 15.75 20
    endloop
  endfacet
  facet normal 0 1 0
    outer loop
      vertex -90 15.75 0
      vertex -33.5 15.75 2
      vertex -10 15.75 0
    endloop
  endfacet
  facet normal 1 -0 0
    outer loop
      vertex -89 5 20
      vertex -89 14.75 2
      vertex -89 14.75 20
    endloop
  endfacet
  facet normal 1 0 0
    outer loop
      vertex -89 14.75 2
      vertex -89 5 20
      vertex -89 5 2
    endloop
  endfacet
  facet normal 1 -0 0
    outer loop
      vertex -89 -14.75 20
      vertex -89 -5 2
      vertex -89 -5 20
    endloop
  endfacet
  facet normal 1 0 0
    outer loop
      vertex -89 -5 2
      vertex -89 -14.75 20
      vertex -89 -14.75 2
    endloop
  endfacet
  facet normal -1 0 0
    outer loop
      vertex -34.5 -14.75 2
      vertex -34.5 14.75 20
      vertex -34.5 14.75 2
    endloop
  endfacet
  facet normal -1 -0 0
    outer loop
      vertex -34.5 14.75 20
      vertex -34.5 -14.75 2
      vertex -34.5 -14.75 20
    endloop
  endfacet
  facet normal 0 -1 0
    outer loop
      vertex -89 14.75 2
      vertex -34.5 14.75 20
      vertex -89 14.75 20
    endloop
  endfacet
  facet normal 0 -1 -0
    outer loop
      vertex -34.5 14.75 20
      vertex -89 14.75 2
      vertex -34.5 14.75 2
    endloop
  endfacet
  facet normal -0 0 1
    outer loop
      vertex -90 5 2
      vertex -89 -5 2
      vertex -89 5 2
    endloop
  endfacet
  facet normal 0 0 1
    outer loop
      vertex -89 -5 2
      vertex -90 5 2
      vertex -90 -5 2
    endloop
  endfacet
  facet normal 0 0 1
    outer loop
      vertex -89 5 2
      vertex -34.5 14.75 2
      vertex -89 14.75 2
    endloop
  endfacet
  facet normal 0 0 1
    outer loop
      vertex -34.5 14.75 2
      vertex -89 5 2
      vertex -34.5 -14.75 2
    endloop
  endfacet
  facet normal -0 0 1
    outer loop
      vertex -89 -5 2
      vertex -34.5 -14.75 2
      vertex -89 5 2
    endloop
  endfacet
  facet normal 0 0 1
    outer loop
      vertex -34.5 -14.75 2
      vertex -89 -5 2
      vertex -89 -14.75 2
    endloop
  endfacet
  facet normal -0 0 1
    outer loop
      vertex -33.5 15.75 2
      vertex -10 -15.75 2
      vertex -10 15.75 2
    endloop
  endfacet
  facet normal 0 0 1
    outer loop
      vertex -10 -15.75 2
      vertex -33.5 15.75 2
      vertex -33.5 -15.75 2
    endloop
  endfacet
  facet normal 0 1 -0
    outer loop
      vertex -34.5 -14.75 2
      vertex -89 -14.75 20
      vertex -34.5 -14.75 20
    endloop
  endfacet
  facet normal 0 1 0
    outer loop
      vertex -89 -14.75 20
      vertex -34.5 -14.75 2
      vertex -89 -14.75 2
    endloop
  endfacet
  facet normal 0 1 -0
    outer loop
      vertex -89 -5 2
      vertex -90 -5 20
      vertex -89 -5 20
    endloop
  endfacet
  facet normal 0 1 0
    outer loop
      vertex -90 -5 20
      vertex -89 -5 2
      vertex -90 -5 2
    endloop
  endfacet
  facet normal 0 -1 0
    outer loop
      vertex -90 5 2
      vertex -89 5 20
      vertex -90 5 20
    endloop
  endfacet
  facet normal 0 -1 -0
    outer loop
      vertex -89 5 20
      vertex -90 5 2
      vertex -89 5 2
    endloop
  endfacet
  facet normal 1 -0 0
    outer loop
      vertex -10 -15.75 2
      vertex -10 15.75 0
      vertex -10 15.75 2
    endloop
  endfacet
  facet normal 1 0 0
    outer loop
      vertex -10 15.75 0
      vertex -10 -15.75 2
      vertex -10 -15.75 0
    endloop
  endfacet
endsolid OpenSCAD_Model
